<?xml version="1.0" standalone="no"?>
<!DOCTYPE svg PUBLIC "-//W3C//DTD SVG 20010904//EN"
 "http://www.w3.org/TR/2001/REC-SVG-20010904/DTD/svg10.dtd">
<svg version="1.0" xmlns="http://www.w3.org/2000/svg"
 width="780.000000pt" height="480.000000pt" viewBox="0 0 780.000000 480.000000"
 preserveAspectRatio="xMidYMid meet">

<g transform="translate(0.000000,480.000000) scale(0.100000,-0.100000)"
fill="#000000" stroke="none">
<path d="M2619 3403 c-153 -3 -210 -7 -217 -16 -17 -21 -21 -1282 -4 -1299 10
-10 74 -14 263 -16 313 -4 299 -9 299 118 0 124 1 124 -188 130 l-147 5 -3
153 c-1 94 2 160 8 172 10 18 21 20 143 20 174 0 177 2 177 114 0 50 -5 89
-12 99 -11 14 -36 17 -163 19 l-150 3 1 112 c1 62 5 124 8 138 l6 25 144 0
c80 0 151 3 160 6 13 5 16 24 16 109 0 117 1 116 -83 113 -29 -2 -145 -4 -258
-5z"/>
<path d="M4500 3400 l-205 -5 -8 -60 c-4 -33 -6 -324 -5 -647 2 -465 6 -590
16 -600 19 -19 525 -19 544 0 9 9 13 43 13 103 0 128 -2 129 -191 129 l-144 0
2 173 3 172 148 5 c116 4 150 8 157 20 15 24 21 111 13 160 l-9 45 -157 3
-157 3 0 114 c0 62 4 125 10 139 l10 26 147 0 c82 0 154 4 162 9 10 7 13 30 9
102 -2 52 -7 100 -11 107 -6 8 -30 11 -75 10 -37 -1 -159 -5 -272 -8z"/>
<path d="M3191 3391 c-10 -6 -12 -19 -7 -47 27 -149 299 -1211 326 -1272 9
-22 14 -23 111 -20 78 2 104 7 110 18 9 16 301 1149 321 1243 17 80 8 87 -102
87 -69 0 -92 -4 -108 -17 -23 -20 -52 -121 -113 -398 -66 -304 -101 -445 -109
-445 -12 0 -13 5 -110 432 -51 222 -97 409 -102 416 -12 14 -195 17 -217 3z"/>
<path d="M5112 3393 c-13 -3 -27 -16 -33 -29 -11 -31 -12 -1284 -1 -1302 6 -9
36 -12 113 -10 l104 3 1 377 c0 208 4 379 9 380 5 2 28 -42 52 -97 23 -55 92
-217 153 -360 61 -143 117 -270 126 -282 13 -21 22 -23 97 -23 51 0 88 5 95
12 16 16 17 1289 2 1319 -9 17 -22 19 -100 19 -48 0 -96 -3 -105 -6 -14 -6
-15 -41 -9 -390 4 -211 4 -384 0 -384 -10 0 -52 95 -188 430 -66 162 -127 307
-134 323 -14 26 -17 27 -87 26 -39 -1 -82 -4 -95 -6z"/>
<path d="M6072 3388 c-14 -14 -16 -166 -2 -188 7 -11 36 -16 112 -20 l103 -5
1 -435 c1 -239 2 -493 3 -563 l1 -128 103 3 102 3 10 560 10 560 99 3 c55 1
106 8 113 14 9 7 13 39 13 103 0 75 -3 94 -16 99 -9 3 -156 6 -328 6 -229 0
-315 -3 -324 -12z"/>
<path d="M845 2919 c-22 -4 -80 -6 -128 -4 -75 3 -87 2 -77 -10 7 -8 9 -24 5
-36 -11 -33 -12 -269 -1 -269 4 0 2 -7 -5 -17 -11 -13 -11 -17 -1 -20 14 -5
16 -33 2 -33 -14 0 -13 -63 1 -77 13 -13 2 -76 -11 -68 -9 5 -5 -55 5 -102 3
-13 2 -23 -2 -23 -5 0 -9 -11 -9 -25 -1 -14 1 -25 6 -25 5 0 5 -106 -1 -148
-3 -20 2 -32 13 -29 18 3 22 -35 4 -45 -12 -7 -16 -24 -16 -68 0 -32 4 -61 10
-65 8 -5 7 -148 -2 -257 -2 -21 0 -38 3 -38 4 0 9 -9 12 -19 4 -17 16 -19 138
-22 147 -3 261 -2 471 3 76 2 138 -1 138 -6 0 -5 7 -3 15 4 9 7 18 10 22 7 3
-4 14 -2 24 4 14 7 19 6 19 -2 0 -8 16 -10 55 -6 31 3 55 2 55 -4 0 -5 7 -9
15 -9 8 0 15 3 15 8 0 7 245 6 342 -2 37 -4 60 -1 66 7 6 7 12 272 14 699 l5
687 -43 7 c-24 3 -52 3 -61 -1 -10 -5 -22 -7 -28 -5 -5 2 -86 5 -180 6 -93 2
-192 4 -220 5 -27 1 -60 -1 -72 -5 -15 -5 -23 -3 -23 4 0 8 -8 10 -22 6 -21
-7 -90 -9 -130 -5 -10 2 -42 -4 -73 -11 -38 -9 -62 -10 -78 -3 -12 5 -55 7
-95 4 -40 -4 -76 -3 -80 0 -14 12 -58 16 -97 8z m640 -104 c166 -42 337 -171
253 -190 -13 -2 -131 -6 -263 -7 -236 -3 -241 -3 -295 -29 -30 -15 -74 -41
-98 -58 -78 -58 -152 -200 -152 -294 0 -51 -15 -58 -117 -55 l-88 3 -3 57 c-5
103 43 239 125 348 74 100 222 195 348 226 71 17 220 17 290 -1z m382 -283
c20 -13 66 -123 67 -161 l1 -36 -317 -5 c-364 -6 -359 -5 -390 -96 l-16 -49
-96 -3 c-95 -3 -95 -3 -102 23 -8 34 11 108 44 169 40 74 122 136 207 157 40
9 587 11 602 1z m-203 -310 c9 -27 -10 -115 -34 -162 -30 -59 -93 -118 -159
-149 -56 -26 -57 -26 -340 -29 -156 -2 -294 -1 -305 2 -35 9 -105 173 -83 195
8 8 103 11 304 11 244 0 299 3 332 16 40 16 71 50 71 79 0 9 5 25 10 36 9 17
22 19 105 19 82 0 94 -2 99 -18z m291 -62 c-1 -141 -57 -263 -174 -381 -124
-125 -272 -188 -443 -189 -99 0 -165 14 -254 55 -105 48 -164 94 -161 125 l2
25 255 5 c272 6 293 10 376 63 98 63 177 186 189 296 10 87 3 82 112 79 l98
-3 0 -75z"/>
<path d="M631 2424 c0 -11 3 -14 6 -6 3 7 2 16 -1 19 -3 4 -6 -2 -5 -13z"/>
<path d="M2545 1880 c-3 -4 -21 -81 -40 -171 -28 -131 -84 -385 -120 -546 -5
-22 -3 -23 59 -23 l65 0 6 38 c11 65 8 63 91 60 l77 -3 14 -47 14 -48 59 0
c37 0 60 4 60 11 0 6 -7 38 -16 71 -8 34 -42 187 -75 342 -32 155 -61 290 -63
301 -5 17 -14 20 -66 22 -33 0 -62 -2 -65 -7z m86 -397 c27 -114 27 -113 -26
-113 -25 0 -45 3 -45 8 0 20 43 192 47 188 3 -3 14 -40 24 -83z"/>
<path d="M3193 1879 c-84 -15 -165 -74 -202 -148 -68 -133 -45 -405 44 -508
20 -23 60 -54 91 -69 49 -24 63 -26 127 -21 l72 6 44 -55 c24 -30 47 -54 51
-54 15 0 70 51 70 64 0 7 -9 21 -21 32 -12 10 -30 32 -41 47 l-20 28 26 37
c55 80 79 210 65 350 -14 131 -55 205 -144 257 -52 31 -110 43 -162 34z m103
-123 c67 -44 108 -199 85 -322 -6 -37 -21 -84 -32 -106 -56 -109 -196 -102
-249 13 -22 46 -25 66 -25 163 0 68 5 126 14 149 15 44 65 105 95 118 27 11
82 4 112 -15z"/>
<path d="M4341 1866 c-5 -11 -16 -57 -25 -101 -10 -44 -44 -200 -77 -348 -32
-147 -59 -270 -59 -273 0 -3 28 -4 63 -2 l62 3 11 45 11 45 75 3 76 3 17 -51
17 -50 59 0 c32 0 59 2 59 4 0 3 -9 42 -20 88 -11 46 -44 202 -75 348 -30 146
-57 274 -60 286 -4 18 -12 21 -65 21 -54 1 -62 -2 -69 -21z m90 -388 c25 -112
26 -108 -26 -108 -25 0 -45 4 -45 9 0 22 43 192 47 187 3 -2 13 -42 24 -88z"/>
<path d="M4768 1883 c-17 -4 -18 -31 -18 -379 l0 -375 58 3 57 3 3 135 c1 74
6 138 11 143 7 7 80 -136 126 -245 l15 -38 70 0 c54 0 70 3 70 14 0 8 -34 82
-77 165 l-76 150 32 26 c17 15 44 48 59 74 56 95 27 232 -63 292 -36 24 -52
28 -145 32 -58 2 -113 2 -122 0z m197 -146 c54 -46 38 -159 -26 -192 -61 -32
-69 -20 -69 100 0 46 3 90 6 99 9 23 59 20 89 -7z"/>
<path d="M5285 1877 c-3 -6 -4 -176 -3 -377 l3 -365 44 -3 c25 -2 55 -1 68 3
l23 5 0 350 c0 202 -4 359 -10 374 -9 24 -15 26 -65 26 -35 0 -57 -5 -60 -13z"/>
<path d="M6218 1883 c-29 -3 -39 -9 -43 -26 -13 -64 -78 -696 -72 -710 5 -13
19 -17 61 -17 l55 0 5 43 c4 23 11 83 16 132 25 213 31 210 95 -45 l31 -125
54 0 54 0 38 160 c21 88 42 163 47 168 10 10 24 -66 44 -228 l12 -100 54 -3
c30 -2 58 1 63 6 6 6 -1 73 -16 173 -14 90 -34 252 -46 359 -11 107 -23 201
-25 208 -5 13 -92 17 -111 4 -6 -4 -25 -74 -43 -157 -38 -176 -59 -253 -71
-260 -12 -7 -51 118 -86 275 -29 133 -37 151 -63 148 -9 -1 -33 -3 -53 -5z"/>
<path d="M3632 1578 c3 -293 4 -304 26 -345 33 -64 90 -97 171 -101 57 -3 74
1 121 25 44 23 59 37 80 78 l25 49 0 296 0 295 -60 0 -60 0 -5 -265 c-3 -146
-9 -274 -14 -285 -36 -81 -110 -86 -142 -8 -12 27 -15 87 -13 296 l1 262 -67
3 -66 3 3 -303z"/>
<path d="M5544 1865 c-11 -27 3 -558 15 -597 52 -166 306 -188 388 -34 15 26
18 78 24 326 3 162 4 301 1 308 -3 8 -25 12 -62 12 l-59 0 -3 -257 c-4 -281
-12 -325 -59 -352 -36 -20 -75 -7 -96 32 -16 29 -18 60 -16 305 l2 272 -65 0
c-49 0 -66 -4 -70 -15z"/>
</g>
</svg>
